<svg xmlns="http://www.w3.org/2000/svg" width="35" height="35" viewBox="0 0 35 35">
  <path id="Facebook" class="icon-facebook" d="M2508.23,5795.73h-27.5a3.751,3.751,0,0,0-3.75,3.75v27.5a3.751,3.751,0,0,0,3.75,3.75h10.72v-11.9h-4.92v-5.6h4.92v-4.27c0-4.85,2.89-7.54,7.32-7.54a29.513,29.513,0,0,1,4.33.38v4.77h-2.44c-2.41,0-3.16,1.49-3.16,3.02v3.64h5.38l-0.86,5.6h-4.52v11.9h10.73a3.751,3.751,0,0,0,3.75-3.75v-27.5A3.751,3.751,0,0,0,2508.23,5795.73Z" transform="translate(-2476.97 -5795.72)"/>
</svg>
