<svg xmlns="http://www.w3.org/2000/svg" width="35" height="35" viewBox="0 0 35 35">
  <defs>
    <style>
      .cls-1 {
        fill: #5c92ff;
        fill-rule: evenodd;
      }
    </style>
  </defs>
  <path id="Instagram" class="cls-1" d="M2538.81,5828.23v-23.37h-7.26v23.37h7.26Zm-3.63-26.56a4.22,4.22,0,1,0-4.2-4.24A4.234,4.234,0,0,0,2535.18,5801.67Zm30.79,26.56h0.01v-12.84c0-6.28-1.35-11.11-8.7-11.11a7.607,7.607,0,0,0-6.86,3.77h-0.1v-3.19h-6.96v23.37h7.24v-11.57c0-3.05.58-5.99,4.36-5.99,3.71,0,3.77,3.47,3.77,6.18v11.38h7.24Z" transform="translate(-2530.97 -5793.22)"/>
</svg>
