<svg width="35" height="35" viewBox="0 0 35 35">
  <path id="Twitter" class="icon-twitter" d="M2454.23,5795.73h-27.5a3.751,3.751,0,0,0-3.75,3.75v27.5a3.751,3.751,0,0,0,3.75,3.75h27.5a3.751,3.751,0,0,0,3.75-3.75v-27.5A3.751,3.751,0,0,0,2454.23,5795.73Zm-3.82,12.41c0.01,0.21.01,0.44,0.01,0.66a14.58,14.58,0,0,1-22.44,12.28,10.033,10.033,0,0,0,1.23.06,10.3,10.3,0,0,0,6.36-2.18,5.144,5.144,0,0,1-4.79-3.56,5.476,5.476,0,0,0,2.31-.09,5.13,5.13,0,0,1-4.1-5.03v-0.07a5.029,5.029,0,0,0,2.31.65,5.733,5.733,0,0,1-2.28-4.25v-0.01a5.02,5.02,0,0,1,.7-2.59,14.54,14.54,0,0,0,10.56,5.36,5.132,5.132,0,0,1,8.74-4.68,10.127,10.127,0,0,0,3.25-1.23,5.116,5.116,0,0,1-2.25,2.82,10.3,10.3,0,0,0,2.96-.8A11.007,11.007,0,0,1,2450.41,5808.14Z" transform="translate(-2422.97 -5795.72)"/>
</svg>
