<svg xmlns="http://www.w3.org/2000/svg" width="42.65" height="30" viewBox="0 0 42.65 30">
  <defs>
    <style>
      .cls-1 {
        fill: #5c92ff;
        fill-rule: evenodd;
      }
    </style>
  </defs>
  <path id="Youtube" class="cls-1" d="M2626.92,5805.92a5.365,5.365,0,0,0-3.77-3.79c-3.33-.9-16.67-0.9-16.67-0.9s-13.35,0-16.67.9a5.347,5.347,0,0,0-3.77,3.79c-0.9,3.35-.9,10.34-0.9,10.34s0,6.99.9,10.34a5.269,5.269,0,0,0,3.77,3.73c3.32,0.9,16.67.9,16.67,0.9s13.34,0,16.67-.9a5.285,5.285,0,0,0,3.77-3.73c0.89-3.35.89-10.34,0.89-10.34S2627.81,5809.27,2626.92,5805.92Zm-24.81,16.68v-12.68l11.15,6.34Z" transform="translate(-2585.16 -5801.22)"/>
</svg>
